# xmcd
#
# Track frame offsets: 
#        150
#        13567
#        23555
#        35775
#        47490
#        61075
#        74155
#        85585
#        98455
#        112405
#        124565
#        135165
#        145920
#        156910
#        168515
#
# Disc length: 2403 seconds
#
# Revision: 1
# Processed by: cddbd v1.5.2PL0 Copyright (c) Steve Scherf et al.
# Submitted via: ExactAudioCopy v0.99pb5
#
DISCID=c109610f
DTITLE=Various Artist - LIVING THE BLUES - 1955-1956 BLUES CLASSICS
DYEAR=1998
DGENRE=Blues
TTITLE0=BIG JOE TURNER - Boogie Woogie Country Girl (1956)
TTITLE1=JOHN LEE HOOKER - Dimples (1956)
TTITLE2=BILLY BOY ARNOLD - I Wish You Would (1955)
TTITLE3=RAY CHARLES - Lonely Avenue (1956)
TTITLE4=BB KING - Sweet Little Angel (1956)
TTITLE5=WILLIE MABON - Poison Ivy (1955)
TTITLE6=JOHNNY ACE - Pledging My Love (1955)
TTITLE7=HOWLIN´WOLF - I Asked For Water (1956)
TTITLE8=WILLIE DIXON - Walking The Blues (1955)
TTITLE9=BIG MAYBELLE - Candy (1956)
TTITLE10=SMILEY LEWIS - Please Listen To Me (1956)
TTITLE11=BILLY GAYLES - I'm Tore Up (1956)
TTITLE12=NAPPY BROWN - Don't Be Angry (1956)
TTITLE13=BILL DOGGETT - Slow Walk (1956)
TTITLE14=CHUCK WILLIS - It's Too Late (1956)
EXTD=
EXTT0=
EXTT1=
EXTT2=
EXTT3=
EXTT4=
EXTT5=
EXTT6=
EXTT7=
EXTT8=
EXTT9=
EXTT10=
EXTT11=
EXTT12=
EXTT13=
EXTT14=
PLAYORDER=
